{
  "accessors": [
    {
      "bufferView": 1,
      "componentType": 5126,
      "count": 2930,
      "max": [
        107.4609603881836,
        107.50448608398438,
        135.74501037597656
      ],
      "min": [
        -107.5390396118164,
        -107.49551391601563,
        -0.2550002634525299
      ],
      "type": "VEC3"
    },
    {
      "bufferView": 1,
      "byteOffset": 35160,
      "componentType": 5126,
      "count": 2930,
      "max": [
        0.9999572038650513,
        0.9993460774421692,
        0.9955664873123169
      ],
      "min": [
        -0.9995389580726624,
        -0.9856993556022644,
        -1.0
      ],
      "type": "VEC3"
    },
    {
      "bufferView": 0,
      "componentType": 5125,
      "count": 2970,
      "type": "SCALAR"
    }
  ],
  "asset": {
    "extras": {
      "author": "dvnc.tech (https://sketchfab.com/dvnc.tech)",
      "license": "CC-BY-4.0 (http://creativecommons.org/licenses/by/4.0/)",
      "source": "https://sketchfab.com/3d-models/low-poly-khafre-be7f0d81bb3f43fa9e8acb9b65ad5985",
      "title": "Low Poly Khafre"
    },
    "generator": "Sketchfab-12.66.0",
    "version": "2.0"
  },
  "bufferViews": [
    {
      "buffer": 0,
      "byteLength": 11880,
      "name": "floatBufferViews",
      "target": 34963
    },
    {
      "buffer": 0,
      "byteLength": 70320,
      "byteOffset": 11880,
      "byteStride": 12,
      "name": "floatBufferViews",
      "target": 34962
    }
  ],
  "buffers": [
    {
      "byteLength": 82200,
      "uri": "scene.bin"
    }
  ],
  "materials": [
    {
      "doubleSided": true,
      "name": "Material",
      "pbrMetallicRoughness": {
        "baseColorFactor": [
          0.8,
          0.606056,
          0.425361,
          1.0
        ],
        "metallicFactor": 0.0,
        "roughnessFactor": 0.8399974604
      }
    }
  ],
  "meshes": [
    {
      "name": "env_pyr_khafre_Material_0",
      "primitives": [
        {
          "attributes": {
            "NORMAL": 1,
            "POSITION": 0
          },
          "indices": 2,
          "material": 0,
          "mode": 4
        }
      ]
    }
  ],
  "nodes": [
    {
      "children": [
        1
      ],
      "matrix": [
        1.0,
        0.0,
        0.0,
        0.0,
        0.0,
        2.220446049250313e-16,
        -1.0,
        0.0,
        0.0,
        1.0,
        2.220446049250313e-16,
        0.0,
        0.0,
        0.0,
        0.0,
        1.0
      ],
      "name": "Sketchfab_model"
    },
    {
      "children": [
        2
      ],
      "matrix": [
        1.0,
        0.0,
        0.0,
        0.0,
        0.0,
        0.0,
        1.0,
        0.0,
        0.0,
        -1.0,
        0.0,
        0.0,
        0.0,
        0.0,
        0.0,
        1.0
      ],
      "name": "ff37689d379a4d6aaf6bf1f9bc456832.fbx"
    },
    {
      "children": [
        3
      ],
      "name": "RootNode"
    },
    {
      "children": [
        4
      ],
      "matrix": [
        100.0,
        0.0,
        0.0,
        0.0,
        0.0,
        -1.629206793918314e-05,
        -99.99999999999868,
        0.0,
        0.0,
        99.99998474120962,
        -1.629206545321086e-05,
        0.0,
        0.0,
        0.0,
        0.0,
        1.0
      ],
      "name": "env_pyr_khafre"
    },
    {
      "mesh": 0,
      "name": "env_pyr_khafre_Material_0"
    }
  ],
  "scene": 0,
  "scenes": [
    {
      "name": "Sketchfab_Scene",
      "nodes": [
        0
      ]
    }
  ]
}
