{
  "accessors": [
    {
      "bufferView": 2,
      "componentType": 5126,
      "count": 72,
      "max": [
        4.2765212059021,
        4.216284275054932,
        36.31447219848633
      ],
      "min": [
        -4.223479270935059,
        -4.272049427032471,
        0.004228002857416868
      ],
      "type": "VEC3"
    },
    {
      "bufferView": 2,
      "byteOffset": 864,
      "componentType": 5126,
      "count": 72,
      "max": [
        0.9958696365356445,
        0.8758682608604431,
        0.9875473976135254
      ],
      "min": [
        -0.9999408721923828,
        -0.9999151229858398,
        -0.9478579759597778
      ],
      "type": "VEC3"
    },
    {
      "bufferView": 1,
      "componentType": 5126,
      "count": 72,
      "max": [
        1.0,
        0.9978464841842651
      ],
      "min": [
        0.16972173750400543,
        0.0006817924440838397
      ],
      "type": "VEC2"
    },
    {
      "bufferView": 0,
      "componentType": 5125,
      "count": 72,
      "type": "SCALAR"
    },
    {
      "bufferView": 2,
      "byteOffset": 1728,
      "componentType": 5126,
      "count": 264,
      "max": [
        4.2765212059021,
        4.227950096130371,
        37.50423049926758
      ],
      "min": [
        -4.223479270935059,
        -4.272049427032471,
        0.004228002857416868
      ],
      "type": "VEC3"
    },
    {
      "bufferView": 2,
      "byteOffset": 4896,
      "componentType": 5126,
      "count": 264,
      "max": [
        0.9999905228614807,
        0.9999867677688599,
        0.9757212996482849
      ],
      "min": [
        -0.9998090863227844,
        -0.9982126355171204,
        -0.9999661445617676
      ],
      "type": "VEC3"
    },
    {
      "bufferView": 1,
      "byteOffset": 576,
      "componentType": 5126,
      "count": 264,
      "max": [
        1.0,
        0.9999999403953552
      ],
      "min": [
        0.0,
        0.0
      ],
      "type": "VEC2"
    },
    {
      "bufferView": 0,
      "byteOffset": 288,
      "componentType": 5125,
      "count": 270,
      "type": "SCALAR"
    }
  ],
  "asset": {
    "extras": {
      "author": "dvnc.tech (https://sketchfab.com/dvnc.tech)",
      "license": "CC-BY-4.0 (http://creativecommons.org/licenses/by/4.0/)",
      "source": "https://sketchfab.com/3d-models/low-poly-monolith-fd104a99606d48e2ac0ad735cb575958",
      "title": "Low-Poly Monolith"
    },
    "generator": "Sketchfab-12.66.0",
    "version": "2.0"
  },
  "bufferViews": [
    {
      "buffer": 0,
      "byteLength": 1368,
      "name": "floatBufferViews",
      "target": 34963
    },
    {
      "buffer": 0,
      "byteLength": 2688,
      "byteOffset": 1368,
      "byteStride": 8,
      "name": "floatBufferViews",
      "target": 34962
    },
    {
      "buffer": 0,
      "byteLength": 8064,
      "byteOffset": 4056,
      "byteStride": 12,
      "name": "floatBufferViews",
      "target": 34962
    }
  ],
  "buffers": [
    {
      "byteLength": 12120,
      "uri": "scene.bin"
    }
  ],
  "materials": [
    {
      "doubleSided": true,
      "name": "lightsandstone",
      "pbrMetallicRoughness": {
        "baseColorFactor": [
          0.8,
          0.722134,
          0.482855,
          1.0
        ],
        "metallicFactor": 0.0,
        "roughnessFactor": 0.8239417257
      }
    },
    {
      "doubleSided": true,
      "name": "sandstone",
      "pbrMetallicRoughness": {
        "baseColorFactor": [
          0.765595,
          0.4805,
          0.283403,
          1.0
        ],
        "metallicFactor": 0.0,
        "roughnessFactor": 0.8239417257
      }
    }
  ],
  "meshes": [
    {
      "name": "struc_monolith_02_lightsandstone_0",
      "primitives": [
        {
          "attributes": {
            "NORMAL": 1,
            "POSITION": 0,
            "TEXCOORD_0": 2
          },
          "indices": 3,
          "material": 0,
          "mode": 4
        }
      ]
    },
    {
      "name": "struc_monolith_02_sandstone_0",
      "primitives": [
        {
          "attributes": {
            "NORMAL": 5,
            "POSITION": 4,
            "TEXCOORD_0": 6
          },
          "indices": 7,
          "material": 1,
          "mode": 4
        }
      ]
    }
  ],
  "nodes": [
    {
      "children": [
        1
      ],
      "matrix": [
        1.0,
        0.0,
        0.0,
        0.0,
        0.0,
        2.220446049250313e-16,
        -1.0,
        0.0,
        0.0,
        1.0,
        2.220446049250313e-16,
        0.0,
        0.0,
        0.0,
        0.0,
        1.0
      ],
      "name": "Sketchfab_model"
    },
    {
      "children": [
        2
      ],
      "matrix": [
        1.0,
        0.0,
        0.0,
        0.0,
        0.0,
        0.0,
        1.0,
        0.0,
        0.0,
        -1.0,
        0.0,
        0.0,
        0.0,
        0.0,
        0.0,
        1.0
      ],
      "name": "b1280f2245f34f8a82e81b7743b41351.fbx"
    },
    {
      "children": [
        3,
        6,
        9
      ],
      "name": "RootNode"
    },
    {
      "children": [
        4,
        5
      ],
      "matrix": [
        100.0,
        0.0,
        0.0,
        0.0,
        0.0,
        -1.629206793918314e-05,
        -99.99999999999868,
        0.0,
        0.0,
        99.99999999999868,
        -1.629206793918314e-05,
        0.0,
        0.0,
        0.0,
        0.0,
        1.0
      ],
      "name": "struc_monolith_02"
    },
    {
      "mesh": 0,
      "name": "struc_monolith_02_lightsandstone_0"
    },
    {
      "mesh": 1,
      "name": "struc_monolith_02_sandstone_0"
    },
    {
      "children": [
        7
      ],
      "matrix": [
        -29.08647719990347,
        -5.518906457566863,
        -95.51711910171437,
        0.0,
        56.63930913109449,
        79.46723428563203,
        -21.83912397841966,
        0.0,
        77.11008775993375,
        -60.45246356562044,
        -19.98834696773717,
        0.0,
        407.6245422363281,
        590.38623046875,
        -100.54539489746094,
        1.0
      ],
      "name": "Lamp"
    },
    {
      "children": [
        8
      ],
      "matrix": [
        1.0,
        0.0,
        0.0,
        0.0,
        0.0,
        2.220446049250313e-16,
        1.0,
        0.0,
        0.0,
        -1.0,
        2.220446049250313e-16,
        0.0,
        0.0,
        0.0,
        0.0,
        1.0
      ],
      "name": "Object_7"
    },
    {
      "name": "Object_8"
    },
    {
      "children": [
        10
      ],
      "matrix": [
        -65.15583280329096,
        -44.52713576570858,
        -61.41703047373549,
        0.0,
        -32.40134137821245,
        89.53957451233616,
        -30.542088974418615,
        0.0,
        68.59205472129975,
        -1.0718647115348782e-05,
        -72.7676336239627,
        0.0,
        748.1131591796875,
        534.3665161132813,
        650.7639770507813,
        1.0
      ],
      "name": "Camera"
    },
    {
      "name": "Object_10"
    }
  ],
  "scene": 0,
  "scenes": [
    {
      "name": "Sketchfab_Scene",
      "nodes": [
        0
      ]
    }
  ]
}
